<?xml version="1.0" encoding="UTF-8" standalone="no"?>
<!DOCTYPE svg PUBLIC "-//W3C//DTD SVG 1.1//EN" "http://www.w3.org/Graphics/SVG/1.1/DTD/svg11.dtd">
<svg xmlns:dc="http://purl.org/dc/elements/1.1/" xmlns="http://www.w3.org/2000/svg" xmlns:xl="http://www.w3.org/1999/xlink" version="1.1" viewBox="92 2779 475.05017 502.46925" width="475.05017" height="502.46925">
  <defs>
    <clipPath id="inner_stroke_clip_path">
      <path d="M 567.0502 3010.1493 C 567.0502 3026.1493 559.8002 3041.7293 545.3102 3056.9093 L 543.0502 3059.1693 L 416.31017 3192.6793 C 389.37017 3220.9793 366.44017 3242.8593 347.51017 3258.2993 C 328.57017 3273.7493 315.21017 3281.4693 307.42017 3281.4693 C 299.22017 3281.4693 289.03017 3277.6093 276.86017 3269.8793 C 264.69017 3262.1593 256.83017 3254.1893 253.28017 3245.9893 C 250.27017 3239.1593 247.44017 3224.6593 244.77017 3202.5093 C 242.10017 3180.3593 240.77017 3156.3693 240.77017 3130.5293 C 240.77017 3116.4493 246.65017 3103.4293 258.41017 3091.4593 C 270.17017 3079.4993 283.15017 3073.5193 297.37017 3073.5193 C 311.59017 3073.5193 318.97017 3085.8993 321.57017 3110.6393 C 321.84017 3113.5093 322.05017 3115.6293 322.19017 3116.9993 C 324.38017 3136.0093 326.91017 3149.2693 329.78017 3156.7893 C 332.65017 3164.3093 336.55017 3168.0693 341.47017 3168.0693 C 343.52017 3168.0693 347.35017 3165.8493 352.95017 3161.3993 C 358.55017 3156.9593 365.25017 3150.9093 373.05017 3143.2493 L 503.2702 3014.2593 C 514.2102 3003.3193 523.9802 2995.0493 532.6002 2989.4493 C 541.2102 2983.8493 548.5302 2981.0393 554.5402 2981.0393 C 559.0502 2981.0393 562.2602 2982.7493 564.1802 2986.1693 C 566.0902 2989.5893 567.0502 2995.3293 567.0502 3003.3993 L 567.0502 3010.1693 Z"/>
    </clipPath>
  </defs>
  <g id="Canvas_1" stroke="none" stroke-dasharray="none" fill-opacity="1" fill="none" stroke-opacity="1">
    <title>Canvas 1</title>
    <g id="Canvas_1_Layer_1">
      <title>Layer 1</title>
      <g id="Graphic_308">
        <path d="M 283.79017 2968.8693 C 286.18017 2968.6093 288.74017 2969.2593 291.07017 2968.0293 C 293.41017 2966.7793 293.63017 2965.2193 291.42017 2963.6293 C 288.41017 2961.4693 279.22017 2961.8693 276.28017 2964.1093 C 274.06017 2965.8093 274.70017 2967.0093 276.80017 2968.0393 C 279.01017 2969.1293 281.41017 2968.6793 283.80017 2968.8593 Z M 107.57017 2891.9693 C 107.62017 2892.2393 108.23017 2891.1593 107.17017 2890.8393 C 106.63017 2890.6793 105.82017 2891.0293 105.26017 2891.3693 C 101.96017 2893.3193 100.58017 2896.4793 100.51017 2900.0893 C 100.33017 2909.4993 100.31017 2918.9193 100.32017 2928.3293 C 100.32017 2931.0193 100.99017 2933.5793 103.26017 2935.3593 C 104.21017 2936.0993 105.27017 2937.2493 106.55017 2936.5993 C 107.69017 2936.0193 107.23017 2934.5893 107.13017 2933.5593 C 105.78017 2920.0093 106.85017 2906.4893 107.58017 2891.9593 Z M 468.22017 2918.0393 C 468.70017 2912.2493 467.41017 2905.6293 467.51017 2898.9693 C 467.56017 2895.5393 465.52017 2893.3093 462.97017 2891.4693 C 462.35017 2891.0193 461.33017 2890.5893 460.72017 2890.7893 C 459.70017 2891.1293 460.33017 2892.1693 460.41017 2892.9393 C 461.10017 2898.9993 461.73017 2905.0593 461.54017 2911.1693 C 461.31017 2918.6493 462.13017 2926.1493 460.89017 2933.6093 C 460.72017 2934.5893 460.22017 2936.0293 461.40017 2936.6293 C 462.48017 2937.1793 463.46017 2936.1593 464.35017 2935.5293 C 466.89017 2933.6993 468.15017 2931.1693 468.21017 2928.0693 C 468.27017 2925.0193 468.23017 2921.9593 468.23017 2918.0293 Z M 271.37017 3196.0993 C 278.30017 3196.6693 285.24017 3196.4993 292.18017 3196.1793 C 294.47017 3196.4693 296.75017 3196.7493 298.98017 3195.8093 C 299.51017 3195.7593 300.05017 3195.7193 300.58017 3195.6693 C 311.05017 3196.2093 321.38017 3194.8293 331.67017 3193.2293 C 362.39017 3188.4893 392.00017 3180.6193 417.80017 3162.1693 C 433.78017 3150.7393 446.09017 3136.4093 453.30017 3117.9893 C 458.52017 3104.6293 460.78017 3090.7293 460.75017 3076.3993 C 460.67017 3040.6693 460.73017 3004.9293 460.57017 2969.1993 C 460.55017 2963.4293 459.79017 2957.6793 459.38017 2951.9093 C 458.19017 2953.4293 457.90017 2954.9193 457.47017 2956.3693 C 453.26017 2970.4193 446.20017 2982.1893 432.57017 2989.2693 C 425.98017 2992.6993 419.22017 2995.4093 412.09017 2997.3293 C 385.42017 3004.4793 359.85017 3002.5093 335.75017 2988.2093 C 333.56017 2986.9093 331.40017 2985.5093 328.98017 2983.9993 C 329.34017 2986.6893 329.65017 2989.0093 329.96017 2991.3293 C 329.63017 2993.5293 329.28017 2995.7393 328.95017 2997.9393 C 325.44017 3004.6193 320.16017 3008.8793 312.48017 3009.6593 C 310.45017 3009.8693 310.11017 3011.2893 309.72017 3012.7593 C 308.65017 3016.7693 307.78017 3020.8493 306.54017 3024.7993 C 304.12017 3032.5293 298.65017 3036.6693 290.59017 3036.9893 C 286.58017 3037.1493 282.55017 3037.0193 278.53017 3037.0493 C 270.91017 3037.0993 265.69017 3033.5493 262.59017 3026.6293 C 260.71017 3022.4193 259.84017 3017.9393 258.82017 3013.4893 C 258.38017 3011.5593 257.59017 3010.4493 255.41017 3010.0693 C 247.62017 3008.6993 242.10017 3004.2893 238.94017 2996.9993 C 238.65017 2995.0893 238.36017 2993.1893 238.07017 2991.2793 C 238.37017 2988.9293 238.67017 2986.5693 239.07017 2983.4393 C 231.63017 2988.7893 224.58017 2992.8393 216.84017 2995.6693 C 191.01017 3005.1193 165.66017 3002.2993 140.89017 2992.0693 C 126.65017 2986.1893 116.41017 2975.9793 112.17017 2960.5993 C 111.39017 2957.7393 110.36017 2954.9493 109.14017 2951.2093 C 108.66017 2954.9893 108.32017 2957.6993 107.98017 2960.4193 C 107.98017 2989.8893 107.87017 3019.3493 108.00017 3048.8293 C 108.06017 3062.3093 107.27017 3075.7793 108.53017 3089.2493 C 112.00017 3126.4193 131.55017 3152.8593 163.53017 3170.4993 C 196.16017 3188.4993 231.97017 3194.1293 268.63017 3195.8493 C 269.50017 3196.3593 270.40017 3196.4093 271.34017 3196.0893 L 271.36017 3196.0693 Z M 439.68017 2863.8793 C 439.86017 2864.0193 440.04017 2864.1793 440.23017 2864.2893 C 440.27017 2864.3093 440.41017 2864.1393 440.51017 2864.0593 C 440.33017 2863.9193 440.13017 2863.7793 439.95017 2863.6393 C 436.29017 2854.9393 430.24017 2847.8593 424.10017 2840.9393 C 406.05017 2820.5793 383.36017 2807.3993 357.78017 2798.9193 C 345.41017 2794.8193 332.79017 2791.6393 319.76017 2790.3693 C 280.87017 2784.4893 242.72017 2787.5693 205.60017 2800.6693 C 174.18017 2811.7493 148.32017 2830.3193 130.39017 2858.9593 C 129.41017 2860.5393 127.49017 2862.5393 128.53017 2864.0193 C 129.61017 2865.5793 131.25017 2862.9093 132.89017 2862.8793 C 133.70017 2862.8593 134.49017 2862.4693 135.30017 2862.2693 C 166.11017 2854.8493 197.37017 2851.3593 229.05017 2851.8793 C 239.45017 2852.0593 249.30017 2854.0693 258.07017 2860.4993 C 271.40017 2870.2793 294.01017 2871.0593 307.73017 2861.7393 C 318.60017 2854.3593 330.30017 2851.7993 343.11017 2851.7393 C 366.10017 2851.6293 388.85017 2853.8793 411.50017 2857.5893 C 420.88017 2859.7193 430.14017 2862.3993 439.67017 2863.8693 L 439.69017 2863.8893 Z M 321.54017 2986.2993 C 319.93017 2982.1393 316.88017 2979.2393 313.36017 2976.6793 C 308.97017 2973.4793 308.47017 2973.5093 304.95017 2977.4093 C 304.12017 2978.3293 303.14017 2979.1293 302.14017 2979.8593 C 290.52017 2988.3893 271.13017 2986.2293 261.69017 2975.3593 C 260.99017 2974.5493 260.55017 2973.3493 259.08017 2974.1793 C 253.35017 2977.3893 247.61017 2980.5793 246.18017 2987.8593 C 244.06017 2995.1693 248.04017 3002.1093 256.78017 3002.9993 C 264.49017 3003.7893 271.41017 3001.5393 277.76017 2997.5593 C 281.88017 2994.9693 285.34017 2994.9193 289.68017 2997.3593 C 296.22017 3001.0293 303.16017 3003.8693 311.08017 3002.8993 C 320.25017 3001.7793 324.61017 2995.0493 321.54017 2986.2893 Z M 105.31017 2818.5893 C 99.52017 2830.7093 105.12017 2847.1093 117.39017 2854.5393 C 120.55017 2856.4493 122.21017 2856.0993 124.22017 2852.8093 C 126.02017 2849.8493 126.77017 2847.9193 123.26017 2845.9993 C 122.21017 2845.4193 121.41017 2844.3793 120.49017 2843.5593 C 113.24017 2833.8293 116.65017 2821.3093 125.87017 2816.8693 C 132.59017 2813.6293 139.99017 2814.9493 146.37017 2821.1593 C 148.39017 2823.1293 149.83017 2823.5493 151.76017 2821.3493 C 152.49017 2820.5193 153.35017 2819.7693 154.29017 2819.2093 C 156.53017 2817.8593 156.29017 2816.3593 154.97017 2814.4593 C 151.18017 2808.9793 146.45017 2804.5893 140.36017 2801.8393 C 126.98017 2795.8193 108.99017 2804.4593 105.31017 2818.5893 Z M 461.64017 2816.0793 C 457.74017 2806.6893 447.70017 2799.6993 437.55017 2799.8793 C 426.24017 2800.0793 418.45017 2806.2993 412.73017 2815.5693 C 412.21017 2816.3993 411.68017 2817.3593 412.65017 2818.1793 C 414.64017 2819.8893 416.49017 2822.1293 418.82017 2822.9593 C 420.37017 2823.5193 421.78017 2820.8693 423.29017 2819.7093 C 423.40017 2819.6293 423.51017 2819.5293 423.62017 2819.4493 C 429.49017 2814.6293 437.24017 2813.8293 443.40017 2817.4093 C 449.53017 2820.9693 452.50017 2828.0893 450.91017 2835.7193 C 450.52017 2837.5993 449.75017 2839.3893 449.15017 2841.2293 C 447.38017 2842.9693 446.20017 2845.2993 443.98017 2846.5793 C 441.69017 2847.9093 441.25017 2849.3693 443.14017 2851.4393 C 443.97017 2852.3493 444.60017 2853.4693 445.18017 2854.5793 C 445.96017 2856.0993 446.90017 2856.4793 448.52017 2855.6893 C 464.67017 2847.7993 468.70017 2828.0193 461.65017 2816.0793 Z M 302.56017 2958.7393 C 303.85017 2960.3193 305.56017 2961.7193 306.34017 2963.5193 C 307.70017 2966.6493 310.35017 2967.1193 313.91017 2968.3693 C 311.28017 2963.5093 308.57017 2959.8493 305.66017 2956.3293 C 302.11017 2951.2693 299.23017 2945.7193 294.51017 2941.5093 C 287.20017 2934.9793 279.53017 2934.9593 272.83017 2941.9993 C 265.76017 2949.4293 260.91017 2958.4793 254.78017 2966.8493 C 258.08017 2967.5393 259.98017 2966.5693 261.39017 2963.9693 C 264.06017 2959.0593 268.37017 2955.9993 273.73017 2954.8193 C 283.76017 2952.6093 293.58017 2952.8293 302.58017 2958.7193 L 302.56017 2958.7193 Z M 178.76017 2992.7093 C 184.73017 2993.3593 190.70017 2993.0393 196.57017 2992.0693 C 207.78017 2990.2093 218.92017 2987.9493 228.11017 2980.5093 C 235.70017 2975.9493 241.83017 2969.7093 247.17017 2962.7993 C 253.09017 2955.1293 258.30017 2946.9093 264.20017 2939.2293 C 274.60017 2925.6893 290.48017 2924.9593 302.15017 2937.2893 C 307.42017 2942.8593 311.11017 2949.5893 315.57017 2955.7493 C 320.76017 2962.9293 325.75017 2970.2993 333.13017 2975.5393 C 336.99017 2979.6393 341.67017 2982.5693 346.73017 2984.8393 C 361.41017 2991.4193 376.70017 2994.3393 392.79017 2992.2693 C 403.14017 2991.8093 412.93017 2989.0693 422.43017 2985.0793 C 430.47017 2981.7093 437.70017 2977.2793 442.39017 2969.5893 C 443.24017 2969.0093 443.39017 2968.0993 443.52017 2967.1993 L 443.49017 2967.2593 C 444.88017 2966.5893 445.23017 2965.1893 445.80017 2963.9393 C 449.89017 2955.0193 451.36017 2945.4693 452.43017 2935.8493 C 454.10017 2920.7293 453.50017 2905.6293 451.53017 2890.5893 C 450.21017 2880.4793 449.24017 2875.6993 436.52017 2872.0893 C 403.36017 2862.6893 369.54017 2859.1593 335.18017 2860.4393 C 327.90017 2860.7193 320.92017 2862.5693 314.90017 2867.0393 C 308.30017 2871.9493 300.97017 2875.0993 292.75017 2875.7893 C 280.59017 2876.8193 268.18017 2877.1293 257.80017 2869.8193 C 247.21017 2862.3793 235.82017 2859.9793 223.28017 2860.0693 C 202.12017 2860.2193 181.10017 2861.8493 160.27017 2865.4893 C 149.64017 2867.3393 139.03017 2869.3993 128.73017 2872.7693 C 121.87017 2875.0093 117.87017 2879.2793 116.86017 2886.6493 C 114.33017 2905.0593 113.57017 2923.4593 116.40017 2941.8893 C 117.69017 2950.3393 119.13017 2958.8193 123.75017 2966.2993 C 128.96017 2976.9093 138.11017 2982.5493 148.82017 2986.2393 C 158.44017 2990.1393 168.50017 2991.9493 178.79017 2992.7193 L 178.77017 2992.7193 Z M 301.49017 3015.5993 C 303.43017 3010.1593 303.46017 3010.0493 298.04017 3008.6393 C 294.31017 3007.6693 290.98017 3005.8093 286.91017 3003.9193 C 286.91017 3006.5493 286.78017 3008.7293 286.94017 3010.8993 C 287.41017 3017.1293 285.72017 3023.3993 287.32017 3029.6093 C 293.85017 3030.6693 297.36017 3028.8293 299.58017 3023.0993 C 300.51017 3020.6893 301.32017 3018.2293 301.50017 3015.6093 Z M 280.61017 3029.5393 C 282.28017 3027.0493 281.18017 3024.3093 281.25017 3021.6993 C 281.43017 3015.8493 281.31017 3009.9893 281.31017 3003.7393 C 276.70017 3005.9193 273.22017 3008.3193 269.02017 3008.9593 C 265.18017 3009.5493 264.11017 3011.3293 266.36017 3014.6993 C 269.22017 3026.3193 271.28017 3031.1693 280.62017 3029.5393 Z M 284.90017 3204.9193 C 256.68017 3205.7293 228.89017 3202.3893 201.68017 3195.2193 C 172.33017 3187.4793 145.76017 3174.4393 125.10017 3151.3993 C 110.76017 3135.3993 102.90017 3116.4793 100.40017 3095.1993 C 99.13017 3084.4193 98.69017 3073.6293 98.88017 3062.7893 C 99.08017 3051.0893 99.83017 3039.3693 99.39017 3027.6893 C 98.76017 3011.2893 98.87017 2994.9093 98.93017 2978.5293 C 98.96017 2968.8293 99.29017 2959.1193 100.37017 2949.4593 C 100.72017 2946.2893 100.37017 2943.7393 97.34017 2941.5593 C 93.72017 2938.9393 91.98017 2934.9393 92.00017 2930.3093 C 92.04017 2920.1593 92.04017 2910.0193 92.08017 2899.8593 C 92.11017 2891.5193 96.48017 2885.6893 103.78017 2882.7593 C 108.01017 2881.0593 110.26017 2878.3393 112.02017 2874.7193 C 113.41017 2871.8593 114.41017 2868.7993 115.71017 2865.8993 C 116.83017 2863.4093 114.59017 2863.0493 113.41017 2862.2493 C 107.08017 2858.0093 101.80017 2852.9493 98.25017 2846.0293 C 91.57017 2833.0093 93.49017 2820.6593 100.31017 2808.4193 C 109.54017 2791.8493 135.41017 2783.8293 154.48017 2800.1593 C 157.49017 2802.7293 159.88017 2806.1393 162.12017 2809.4593 C 163.67017 2811.7493 164.81017 2811.4293 166.73017 2810.1393 C 184.85017 2798.0293 204.87017 2790.3793 225.92017 2785.2793 C 241.06017 2781.6193 256.43017 2779.9093 272.02017 2779.2693 C 291.38017 2778.4693 310.56017 2779.3993 329.59017 2782.7693 C 354.67017 2787.2193 378.51017 2795.1893 400.08017 2809.1393 C 403.09017 2811.0893 405.65017 2810.4993 407.76017 2807.3693 C 414.42017 2797.5193 423.82017 2791.4693 435.53017 2791.3693 C 456.72017 2791.1893 469.84017 2803.4893 473.14017 2823.5693 C 475.74017 2839.4193 469.51017 2852.0193 456.39017 2861.1893 C 451.57017 2864.5593 451.68017 2864.4393 453.77017 2870.2093 C 455.95017 2876.2293 459.27017 2880.8093 465.52017 2883.3393 C 474.32017 2886.9093 476.11017 2894.8993 476.41017 2903.2393 C 476.70017 2911.5693 476.59017 2919.9193 476.47017 2928.2593 C 476.40017 2932.6493 475.57017 2937.3193 472.11017 2940.0593 C 467.36017 2943.8093 467.85017 2948.4793 468.46017 2953.2293 C 468.90017 2956.6993 468.99017 2960.1393 469.09017 2963.6093 C 469.88017 2988.3293 470.14017 3013.0693 469.67017 3037.7893 C 469.44017 3049.9593 468.97017 3062.1493 469.29017 3074.3093 C 469.71017 3090.1793 467.62017 3105.5793 461.96017 3120.3893 C 457.72017 3131.4693 451.79017 3141.5793 443.83017 3150.5493 C 426.27017 3170.3293 404.31017 3182.7693 379.48017 3191.0493 C 357.89017 3198.2493 335.82017 3202.2993 313.19017 3204.1693 C 303.74017 3204.9493 294.32017 3204.5693 284.90017 3204.9293 L 284.90017 3204.9093 Z" fill="#15343f"/>
      </g>
      <g id="Graphic_307">
        <path d="M 328.96017 2997.9493 C 329.29017 2995.7493 329.64017 2993.5393 329.97017 2991.3393 C 331.43017 2991.4393 332.59017 2992.2093 333.70017 2993.0493 C 344.26017 3001.0193 356.50017 3005.5093 369.22017 3007.6193 C 390.94017 3011.2093 412.11017 3008.3193 431.86017 2998.1093 C 435.62017 2996.1693 435.80017 2997.1793 435.78017 3000.5593 C 435.70017 3022.6593 435.85017 3044.7793 435.70017 3066.8793 C 435.63017 3077.5593 434.49017 3088.1993 431.82017 3098.5593 C 423.24017 3131.8593 402.77017 3155.7893 372.93017 3171.9893 C 351.13017 3183.8193 327.71017 3190.8993 303.12017 3194.0393 C 301.97017 3194.1893 300.87017 3194.2393 300.58017 3195.6593 C 300.05017 3195.7093 299.51017 3195.7493 298.98017 3195.7993 C 296.64017 3194.5093 294.34017 3194.0193 292.18017 3196.1693 C 285.25017 3196.4993 278.30017 3196.6593 271.37017 3196.0893 C 270.51017 3195.4793 269.60017 3195.5593 268.66017 3195.8493 C 232.00017 3194.1293 196.19017 3188.4893 163.56017 3170.4993 C 131.59017 3152.8593 112.03017 3126.4293 108.56017 3089.2493 C 107.30017 3075.7793 108.08017 3062.3093 108.03017 3048.8293 C 107.90017 3019.3593 108.00017 2989.8993 108.01017 2960.4193 C 110.66017 2961.0693 110.44017 2963.5993 111.09017 2965.4193 C 114.11017 2973.9193 116.96017 2982.4393 123.61017 2989.0793 C 132.90017 2998.3693 144.46017 3002.8693 156.92017 3005.8493 C 182.20017 3011.8893 206.38017 3009.7493 229.16017 2996.5493 C 232.16017 2994.8093 234.80017 2992.4893 238.10017 2991.2693 C 238.39017 2993.1793 238.68017 2995.0793 238.97017 2996.9893 C 239.02017 3006.2993 243.11017 3012.2293 251.81017 3015.1593 C 254.42017 3016.0393 256.18017 3017.1993 256.59017 3020.1693 C 256.85017 3022.0593 257.69017 3023.8693 258.33017 3025.6993 C 261.56017 3034.9293 266.16017 3042.7593 277.26017 3043.5793 C 280.58017 3043.8293 283.93017 3043.8593 287.26017 3043.7593 C 297.65017 3043.4293 305.38017 3039.1593 308.91017 3028.8193 C 309.89017 3025.9293 311.42017 3023.1393 311.81017 3020.1793 C 312.25017 3016.7793 314.15017 3015.5893 316.97017 3014.5693 C 324.90017 3011.6793 328.74017 3006.2093 328.97017 2997.9293 Z" fill="#70c5d5"/>
      </g>
      <g id="Graphic_306">
        <path d="M 411.51017 2857.5893 C 388.86017 2853.8893 366.11017 2851.6293 343.12017 2851.7393 C 330.30017 2851.7993 318.61017 2854.3593 307.74017 2861.7393 C 294.02017 2871.0493 271.42017 2870.2793 258.08017 2860.4993 C 249.32017 2854.0693 239.46017 2852.0493 229.06017 2851.8793 C 197.38017 2851.3493 166.12017 2854.8493 135.31017 2862.2693 C 134.50017 2862.4593 133.71017 2862.8593 132.90017 2862.8793 C 131.26017 2862.9093 129.62017 2865.5793 128.54017 2864.0193 C 127.51017 2862.5293 129.42017 2860.5293 130.40017 2858.9593 C 148.33017 2830.3193 174.20017 2811.7493 205.61017 2800.6693 C 242.72017 2787.5793 280.87017 2784.4893 319.77017 2790.3693 C 321.61017 2793.3193 324.98017 2793.2193 327.73017 2794.0493 C 342.54017 2798.4893 356.43017 2804.8493 369.51017 2813.0693 C 382.05017 2820.9593 392.87017 2830.8293 402.12017 2842.3193 C 405.85017 2846.9493 410.79017 2851.0393 411.52017 2857.5993 Z" fill="#70c5d5"/>
      </g>
      <g id="Graphic_305">
        <path d="M 300.59017 3195.6693 C 300.87017 3194.2493 301.98017 3194.1893 303.13017 3194.0493 C 327.73017 3190.8993 351.13017 3183.8293 372.94017 3171.9993 C 402.78017 3155.7993 423.25017 3131.8593 431.83017 3098.5693 C 434.50017 3088.2093 435.64017 3077.5793 435.71017 3066.8893 C 435.85017 3044.7893 435.71017 3022.6693 435.79017 3000.5693 C 435.79017 2997.1893 435.63017 2996.1693 431.87017 2998.1193 C 412.11017 3008.3293 390.94017 3011.2193 369.23017 3007.6293 C 356.51017 3005.5293 344.27017 3001.0293 333.71017 2993.0593 C 332.59017 2992.2193 331.44017 2991.4493 329.98017 2991.3493 C 329.67017 2989.0293 329.35017 2986.6993 329.00017 2984.0193 C 331.43017 2985.5293 333.57017 2986.9193 335.77017 2988.2293 C 359.87017 3002.5293 385.44017 3004.4993 412.11017 2997.3493 C 419.24017 2995.4393 426.00017 2992.7193 432.59017 2989.2893 C 446.21017 2982.2093 453.27017 2970.4393 457.49017 2956.3893 C 457.92017 2954.9393 458.22017 2953.4493 459.40017 2951.9293 C 459.82017 2957.6993 460.57017 2963.4493 460.59017 2969.2193 C 460.73017 3004.9493 460.69017 3040.6893 460.77017 3076.4193 C 460.80017 3090.7493 458.54017 3104.6493 453.32017 3118.0093 C 446.11017 3136.4293 433.79017 3150.7593 417.82017 3162.1893 C 392.02017 3180.6493 362.42017 3188.5093 331.69017 3193.2493 C 321.40017 3194.8393 311.07017 3196.2193 300.60017 3195.6893 Z" fill="#50a5b8"/>
      </g>
      <g id="Graphic_304">
        <path d="M 123.71017 2966.2793 C 119.09017 2958.7993 117.66017 2950.3193 116.36017 2941.8693 C 113.53017 2923.4493 114.30017 2905.0493 116.82017 2886.6293 C 117.83017 2879.2493 121.83017 2874.9893 128.69017 2872.7493 C 138.99017 2869.3793 149.60017 2867.3293 160.23017 2865.4693 C 181.07017 2861.8293 202.08017 2860.1993 223.24017 2860.0493 C 235.79017 2859.9593 247.17017 2862.3493 257.76017 2869.7993 C 268.16017 2877.0993 280.56017 2876.7893 292.71017 2875.7693 C 300.94017 2875.0793 308.26017 2871.9293 314.86017 2867.0193 C 320.88017 2862.5493 327.86017 2860.6893 335.14017 2860.4193 C 369.50017 2859.1293 403.32017 2862.6793 436.48017 2872.0693 C 449.20017 2875.6693 450.16017 2880.4593 451.49017 2890.5693 C 453.45017 2905.6093 454.06017 2920.6993 452.39017 2935.8293 C 451.33017 2945.4593 449.86017 2954.9993 445.76017 2963.9193 C 445.18017 2965.1593 444.85017 2966.5693 443.45017 2967.2393 C 442.82017 2965.1993 443.74017 2963.3993 444.39017 2961.6193 C 447.74017 2952.4393 449.25017 2942.8993 449.79017 2933.2193 C 450.47017 2921.0493 449.51017 2908.8793 448.94017 2896.7093 C 448.84017 2894.5593 448.58017 2892.3093 447.45017 2890.3393 C 447.20017 2882.7393 444.09017 2878.7193 437.02017 2876.1793 C 428.51017 2873.1193 419.39017 2872.6293 410.84017 2869.7593 C 409.88017 2869.4293 408.91017 2869.5193 408.17017 2870.3593 C 400.98017 2867.3893 393.37017 2866.9293 385.73017 2866.4393 C 387.19017 2867.2493 388.82017 2867.5793 390.23017 2868.3293 C 392.37017 2869.4593 395.44017 2869.2393 396.38017 2872.2593 C 384.48017 2871.0393 372.59017 2869.8193 360.69017 2868.5993 C 362.59017 2866.8993 365.70017 2867.4193 367.62017 2864.8793 C 362.29017 2864.0993 357.33017 2863.2893 352.27017 2863.8693 C 351.23017 2862.5793 349.75017 2863.0193 348.41017 2862.8893 C 344.51017 2862.5193 340.66017 2863.2193 336.85017 2863.7893 C 330.83017 2864.6893 324.44017 2865.2793 319.51017 2869.0093 C 308.72017 2877.1793 296.46017 2880.3193 283.36017 2880.2493 C 271.72017 2880.1793 260.67017 2877.2993 250.92017 2870.4293 C 244.39017 2865.8393 236.93017 2863.9093 229.05017 2863.7493 C 223.80017 2863.6493 218.56017 2863.6193 213.29017 2864.3293 C 209.08017 2864.8993 204.64017 2863.0693 200.06017 2865.2493 C 202.29017 2867.0293 205.35017 2866.6593 207.12017 2868.6993 C 194.79017 2869.8493 182.41017 2870.6093 170.18017 2872.6993 C 173.27017 2869.1093 177.91017 2868.4293 181.88017 2866.3793 C 174.68017 2866.9393 167.58017 2867.8793 160.61017 2869.7693 C 158.88017 2869.3293 157.30017 2870.0993 155.71017 2870.4793 C 146.83017 2872.5693 137.69017 2873.5993 129.08017 2876.8393 C 123.97017 2878.7593 120.55017 2883.3793 120.34017 2888.7293 C 119.17017 2890.9893 118.83017 2893.4593 118.76017 2895.9293 C 118.34017 2909.9093 116.82017 2923.9093 118.74017 2937.8893 C 119.52017 2943.6093 119.01017 2949.6593 122.08017 2954.8793 C 124.25017 2958.5693 123.84017 2962.4193 123.67017 2966.3293 L 123.69017 2966.2993 Z" fill="#dbeaef"/>
      </g>
      <g id="Graphic_303">
        <path d="M 411.51017 2857.5893 C 410.78017 2851.0293 405.84017 2846.9393 402.11017 2842.3093 C 392.86017 2830.8193 382.05017 2820.9393 369.50017 2813.0593 C 356.42017 2804.8393 342.53017 2798.4793 327.72017 2794.0393 C 324.97017 2793.2093 321.60017 2793.3093 319.76017 2790.3593 C 332.79017 2791.6393 345.40017 2794.8093 357.78017 2798.9093 C 383.36017 2807.3893 406.05017 2820.5693 424.10017 2840.9293 C 430.24017 2847.8593 436.30017 2854.9293 439.95017 2863.6293 L 439.67017 2863.8693 C 430.15017 2862.3793 420.89017 2859.7093 411.51017 2857.5793 Z" fill="#50a5b8"/>
      </g>
      <g id="Graphic_302">
        <path d="M 238.09017 2991.2893 C 234.79017 2992.5193 232.15017 2994.8393 229.15017 2996.5693 C 206.36017 3009.7593 182.19017 3011.9093 156.91017 3005.8693 C 144.46017 3002.8893 132.89017 2998.3893 123.60017 2989.0993 C 116.96017 2982.4593 114.11017 2973.9493 111.08017 2965.4393 C 110.44017 2963.6293 110.65017 2961.0893 108.00017 2960.4393 C 108.34017 2957.7293 108.68017 2955.0193 109.16017 2951.2293 C 110.37017 2954.9593 111.40017 2957.7493 112.19017 2960.6193 C 116.43017 2975.9993 126.68017 2986.1993 140.91017 2992.0893 C 165.68017 3002.3293 191.02017 3005.1393 216.86017 2995.6893 C 224.60017 2992.8593 231.65017 2988.7993 239.09017 2983.4593 C 238.69017 2986.5893 238.39017 2988.9393 238.09017 2991.2993 Z" fill="#50a5b8"/>
      </g>
      <g id="Graphic_301">
        <path d="M 246.17017 2987.8593 C 247.60017 2980.5893 253.34017 2977.3993 259.07017 2974.1793 C 260.55017 2973.3493 260.98017 2974.5493 261.68017 2975.3593 C 271.12017 2986.2193 290.51017 2988.3893 302.13017 2979.8593 C 303.13017 2979.1293 304.12017 2978.3193 304.94017 2977.4093 C 308.45017 2973.4993 308.95017 2973.4693 313.35017 2976.6793 C 316.85017 2979.2393 319.92017 2982.1493 321.53017 2986.2993 C 318.93017 2994.8893 316.35017 2996.8093 307.40017 2996.2093 C 301.81017 2995.8393 296.36017 2994.4493 291.66017 2991.3293 C 286.44017 2987.8593 281.44017 2988.0893 276.54017 2991.4293 C 272.74017 2994.0193 268.55017 2995.4193 264.17017 2995.9893 C 255.82017 2997.0693 248.44017 2996.3893 246.16017 2987.8693 Z" fill="#dabd94"/>
      </g>
      <g id="Graphic_300">
        <path d="M 333.12017 2975.5193 C 325.74017 2970.2793 320.75017 2962.9093 315.56017 2955.7293 C 311.10017 2949.5593 307.41017 2942.8393 302.14017 2937.2693 C 290.48017 2924.9493 274.59017 2925.6693 264.19017 2939.2093 C 258.29017 2946.8893 253.08017 2955.1093 247.16017 2962.7793 C 241.82017 2969.6893 235.70017 2975.9193 228.10017 2980.4893 C 226.30017 2978.5493 227.88017 2975.7193 226.33017 2973.7093 C 235.22017 2967.4093 242.84017 2959.8793 248.77017 2950.6593 C 251.99017 2945.6493 255.34017 2940.7093 258.76017 2935.8293 C 261.64017 2931.7193 265.03017 2928.0293 269.47017 2925.5393 C 283.42017 2917.7093 298.72017 2921.3093 308.59017 2935.0593 C 316.89017 2946.6293 324.12017 2959.0193 334.83017 2968.6993 C 334.26017 2970.9693 333.69017 2973.2493 333.12017 2975.5193 Z" fill="#acd2d8"/>
      </g>
      <g id="Graphic_299">
        <path d="M 105.31017 2818.5893 C 108.99017 2804.4593 126.99017 2795.8193 140.36017 2801.8393 C 146.45017 2804.5893 151.18017 2808.9693 154.97017 2814.4593 C 156.29017 2816.3593 156.53017 2817.8593 154.29017 2819.2093 C 153.36017 2819.7793 152.48017 2820.5293 151.76017 2821.3493 C 149.83017 2823.5393 148.39017 2823.1293 146.37017 2821.1593 C 139.99017 2814.9393 132.59017 2813.6293 125.87017 2816.8693 C 116.65017 2821.3093 113.24017 2833.8293 120.49017 2843.5593 C 118.60017 2844.3693 117.28017 2843.0293 116.16017 2842.0493 C 111.85017 2838.2793 108.81017 2833.6793 107.02017 2828.1293 C 106.00017 2824.9793 107.25017 2821.4993 105.31017 2818.5893 Z" fill="#70c5d5"/>
      </g>
      <g id="Graphic_298">
        <path d="M 449.15017 2841.2293 C 449.75017 2839.3893 450.52017 2837.5993 450.91017 2835.7193 C 452.50017 2828.0893 449.52017 2820.9793 443.40017 2817.4093 C 437.23017 2813.8193 429.48017 2814.6193 423.62017 2819.4493 C 423.51017 2819.5393 423.40017 2819.6293 423.29017 2819.7093 C 421.78017 2820.8693 420.36017 2823.5093 418.82017 2822.9593 C 416.49017 2822.1293 414.65017 2819.8893 412.65017 2818.1793 C 411.68017 2817.3493 412.22017 2816.3993 412.73017 2815.5693 C 418.45017 2806.2993 426.23017 2800.0793 437.55017 2799.8793 C 447.70017 2799.6993 457.74017 2806.6893 461.64017 2816.0793 C 459.98017 2817.8293 459.91017 2819.9793 459.95017 2822.2293 C 460.08017 2829.3993 456.98017 2835.1993 452.11017 2840.1793 C 451.37017 2840.9393 450.70017 2842.5193 449.14017 2841.2293 Z" fill="#70c5d5"/>
      </g>
      <g id="Graphic_297">
        <path d="M 447.49017 2890.3193 C 448.62017 2892.2993 448.88017 2894.5493 448.98017 2896.6893 C 449.56017 2908.8493 450.52017 2921.0193 449.83017 2933.1993 C 449.29017 2942.8693 447.78017 2952.4193 444.43017 2961.5993 C 443.78017 2963.3893 442.85017 2965.1993 443.49017 2967.2193 L 443.52017 2967.1593 C 442.54017 2967.6693 441.70017 2968.2493 442.39017 2969.5493 C 437.70017 2977.2393 430.47017 2981.6693 422.43017 2985.0393 C 412.93017 2989.0293 403.14017 2991.7693 392.78017 2992.2293 C 391.87017 2992.0993 390.96017 2991.9793 390.06017 2991.8593 C 390.72017 2991.3793 391.38017 2991.2893 392.03017 2991.2793 C 393.75017 2991.2493 395.30017 2991.1193 395.67017 2988.9193 C 396.07017 2986.5293 394.41017 2986.8793 392.99017 2986.5793 C 392.26017 2986.4293 392.47017 2985.4393 392.41017 2984.7793 C 395.18017 2984.3693 398.11017 2985.1093 400.74017 2983.6493 C 401.55017 2983.5193 402.36017 2983.3793 403.17017 2983.2393 C 403.22017 2984.9793 404.10017 2985.7393 405.78017 2986.3793 C 409.22017 2987.6693 412.21017 2986.3793 415.37017 2985.5193 C 421.24017 2983.9393 421.36017 2983.8193 419.93017 2977.9893 C 430.31017 2972.8493 437.13017 2964.7593 440.57017 2953.6793 C 444.48017 2941.0693 445.78017 2928.1593 445.32017 2915.0493 C 445.05017 2907.3093 444.94017 2899.4993 442.29017 2892.0593 C 442.35017 2891.7793 442.41017 2891.4793 442.47017 2891.1993 C 444.24017 2891.4493 445.83017 2890.6693 447.50017 2890.3293 L 447.50017 2890.3093 Z" fill="#acd2d8"/>
      </g>
      <g id="Graphic_296">
        <path d="M 328.96017 2997.9493 C 328.73017 3006.2393 324.89017 3011.6993 316.96017 3014.5893 C 314.15017 3015.6193 312.25017 3016.7893 311.80017 3020.1993 C 311.42017 3023.1493 309.89017 3025.9593 308.90017 3028.8393 C 305.38017 3039.1793 297.64017 3043.4493 287.25017 3043.7793 C 283.92017 3043.8893 280.57017 3043.8593 277.25017 3043.5993 C 266.14017 3042.7693 261.54017 3034.9393 258.32017 3025.7193 C 257.68017 3023.8893 256.83017 3022.0693 256.58017 3020.1893 C 256.17017 3017.2193 254.42017 3016.0593 251.80017 3015.1793 C 243.10017 3012.2493 239.00017 3006.3193 238.96017 2997.0093 C 242.12017 3004.2893 247.64017 3008.7093 255.43017 3010.0793 C 257.62017 3010.4593 258.40017 3011.5693 258.84017 3013.4993 C 259.86017 3017.9493 260.73017 3022.4293 262.61017 3026.6393 C 265.71017 3033.5693 270.93017 3037.0993 278.55017 3037.0593 C 282.57017 3037.0293 286.59017 3037.1593 290.61017 3036.9993 C 298.67017 3036.6793 304.14017 3032.5393 306.56017 3024.8093 C 307.80017 3020.8493 308.67017 3016.7793 309.74017 3012.7693 C 310.13017 3011.2893 310.47017 3009.8693 312.50017 3009.6693 C 320.18017 3008.8893 325.46017 3004.6393 328.97017 2997.9493 L 328.94017 2997.9493 Z" fill="#50a5b8"/>
      </g>
      <g id="Graphic_295">
        <path d="M 123.71017 2966.2793 C 123.89017 2962.3693 124.29017 2958.5093 122.12017 2954.8293 C 119.05017 2949.6093 119.57017 2943.5693 118.78017 2937.8393 C 116.86017 2923.8593 118.38017 2909.8693 118.80017 2895.8793 C 118.88017 2893.4093 119.21017 2890.9393 120.38017 2888.6793 C 122.37017 2888.4993 124.27017 2889.0093 126.16017 2889.5093 C 125.37017 2892.7293 124.20017 2895.8993 123.86017 2899.1693 C 122.52017 2912.0093 121.83017 2924.9093 123.78017 2937.7293 C 126.19017 2953.6593 130.14017 2968.9193 146.26017 2977.1193 C 144.91017 2980.5493 146.32017 2983.1393 148.78017 2985.4093 L 148.78017 2986.2093 C 138.07017 2982.5193 128.91017 2976.8793 123.71017 2966.2693 Z" fill="#acd2d8"/>
      </g>
      <g id="Graphic_294">
        <path d="M 302.56017 2958.7393 C 293.57017 2952.8493 283.75017 2952.6193 273.71017 2954.8393 C 268.36017 2956.0193 264.04017 2959.0893 261.37017 2963.9893 C 259.95017 2966.5893 258.06017 2967.5493 254.76017 2966.8693 C 260.88017 2958.4893 265.75017 2949.4493 272.81017 2942.0193 C 279.51017 2934.9793 287.18017 2934.9893 294.49017 2941.5293 C 299.20017 2945.7393 302.08017 2951.2893 305.64017 2956.3493 C 305.41017 2958.1893 304.26017 2958.8393 302.55017 2958.7493 Z" fill="#70c5d5"/>
      </g>
      <g id="Graphic_293">
        <path d="M 148.78017 2985.4193 C 146.33017 2983.1493 144.91017 2980.5593 146.26017 2977.1293 C 160.65017 2983.8993 175.89017 2985.3993 191.55017 2984.7793 C 204.21017 2984.2893 215.61017 2980.1493 226.34017 2973.7193 C 227.89017 2975.7293 226.31017 2978.5593 228.11017 2980.4993 C 218.91017 2987.9393 207.78017 2990.1993 196.57017 2992.0593 C 190.70017 2993.0393 184.73017 2993.3493 178.76017 2992.6993 C 178.09017 2990.2093 174.55017 2992.1993 173.95017 2989.5993 C 173.37017 2987.0593 171.35017 2987.3593 169.40017 2987.0693 C 162.56017 2986.0693 155.59017 2986.7993 148.79017 2985.4093 Z" fill="#91c7d2"/>
      </g>
      <g id="Graphic_292">
        <path d="M 246.17017 2987.8593 C 248.46017 2996.3793 255.84017 2997.0593 264.18017 2995.9793 C 268.56017 2995.4093 272.75017 2994.0093 276.55017 2991.4193 C 281.45017 2988.0793 286.45017 2987.8493 291.67017 2991.3193 C 296.36017 2994.4393 301.81017 2995.8293 307.41017 2996.1993 C 316.35017 2996.7893 318.94017 2994.8693 321.54017 2986.2893 C 324.61017 2995.0493 320.25017 3001.7793 311.08017 3002.8993 C 303.16017 3003.8693 296.21017 3001.0293 289.68017 2997.3593 C 285.34017 2994.9193 281.88017 2994.9693 277.76017 2997.5593 C 271.41017 3001.5393 264.50017 3003.7893 256.78017 3002.9993 C 248.04017 3002.0993 244.06017 2995.1593 246.18017 2987.8593 Z" fill="#a78f70"/>
      </g>
      <g id="Graphic_291">
        <path d="M 392.40017 2984.7893 C 392.45017 2985.4493 392.25017 2986.4393 392.98017 2986.5893 C 394.40017 2986.8793 396.06017 2986.5393 395.66017 2988.9293 C 395.29017 2991.1293 393.74017 2991.2693 392.02017 2991.2893 C 391.37017 2991.2893 390.72017 2991.3893 390.05017 2991.8693 C 390.96017 2991.9993 391.86017 2992.1193 392.77017 2992.2393 C 376.68017 2994.3093 361.39017 2991.3993 346.72017 2984.8093 C 341.66017 2982.5393 336.97017 2979.6093 333.12017 2975.5093 C 333.69017 2973.2393 334.26017 2970.9593 334.83017 2968.6893 C 336.32017 2969.6793 337.81017 2970.6793 339.30017 2971.6793 C 347.17017 2976.9093 355.37017 2981.1693 364.82017 2983.0893 C 374.00017 2984.9593 383.14017 2985.3793 392.40017 2984.7793 Z" fill="#91c7d2"/>
      </g>
      <g id="Graphic_290">
        <path d="M 449.15017 2841.2293 C 450.71017 2842.5193 451.38017 2840.9393 452.12017 2840.1793 C 456.98017 2835.1993 460.09017 2829.3893 459.96017 2822.2293 C 459.92017 2819.9893 459.98017 2817.8293 461.65017 2816.0793 C 468.71017 2828.0193 464.68017 2847.7993 448.52017 2855.6893 C 446.90017 2856.4793 445.97017 2856.0993 445.18017 2854.5793 C 444.60017 2853.4793 443.98017 2852.3493 443.14017 2851.4393 C 441.25017 2849.3793 441.69017 2847.9093 443.98017 2846.5793 C 446.19017 2845.2893 447.38017 2842.9693 449.15017 2841.2293 Z" fill="#50a5b8"/>
      </g>
      <g id="Graphic_289">
        <path d="M 105.31017 2818.5893 C 107.25017 2821.4993 106.00017 2824.9693 107.02017 2828.1293 C 108.81017 2833.6793 111.84017 2838.2793 116.16017 2842.0493 C 117.28017 2843.0293 118.60017 2844.3693 120.49017 2843.5593 C 121.41017 2844.3893 122.21017 2845.4293 123.26017 2845.9993 C 126.77017 2847.9193 126.02017 2849.8493 124.22017 2852.8093 C 122.22017 2856.0993 120.56017 2856.4493 117.39017 2854.5393 C 105.12017 2847.1093 99.52017 2830.7093 105.31017 2818.5893 Z" fill="#50a5b8"/>
      </g>
      <g id="Graphic_288">
        <path d="M 468.23017 2918.0193 C 468.23017 2921.9493 468.27017 2924.9993 468.21017 2928.0593 C 468.15017 2931.1593 466.89017 2933.6993 464.35017 2935.5193 C 463.47017 2936.1493 462.48017 2937.1693 461.40017 2936.6193 C 460.23017 2936.0193 460.73017 2934.5793 460.89017 2933.5993 C 462.13017 2926.1493 461.31017 2918.6393 461.54017 2911.1593 C 461.73017 2905.0393 461.10017 2898.9893 460.41017 2892.9293 C 460.32017 2892.1493 459.70017 2891.1193 460.72017 2890.7793 C 461.34017 2890.5693 462.36017 2891.0093 462.97017 2891.4593 C 465.52017 2893.2993 467.56017 2895.5293 467.51017 2898.9593 C 467.41017 2905.6193 468.70017 2912.2293 468.22017 2918.0293 Z" fill="#4b6c76"/>
      </g>
      <g id="Graphic_287">
        <path d="M 107.57017 2891.9693 C 106.83017 2906.4993 105.77017 2920.0093 107.12017 2933.5693 C 107.22017 2934.5993 107.69017 2936.0193 106.54017 2936.6093 C 105.26017 2937.2593 104.20017 2936.1193 103.25017 2935.3793 C 100.97017 2933.6093 100.31017 2931.0493 100.31017 2928.3493 C 100.31017 2918.9393 100.33017 2909.5193 100.50017 2900.1093 C 100.57017 2896.4993 101.95017 2893.3393 105.25017 2891.3893 C 105.81017 2891.0593 106.62017 2890.6993 107.16017 2890.8593 C 108.22017 2891.1793 107.61017 2892.2493 107.56017 2891.9893 Z" fill="#4b6c76"/>
      </g>
      <g id="Graphic_286">
        <path d="M 301.49017 3015.5893 C 301.31017 3018.1993 300.51017 3020.6693 299.57017 3023.0793 C 297.34017 3028.8193 293.83017 3030.6493 287.31017 3029.5893 C 287.35017 3026.2593 287.39017 3022.9293 287.43017 3019.5893 C 287.54017 3009.1493 288.29017 3008.6693 298.44017 3011.8193 C 300.48017 3012.4493 301.54017 3013.4593 301.49017 3015.5693 Z" fill="#fdfeff"/>
      </g>
      <g id="Graphic_285">
        <path d="M 280.62017 3029.5293 C 271.29017 3031.1593 269.23017 3026.3093 266.36017 3014.6893 C 268.90017 3011.0793 273.11017 3011.5293 276.70017 3010.5793 C 279.50017 3009.8493 280.67017 3011.1393 280.57017 3014.1293 C 280.40017 3019.2493 280.59017 3024.3893 280.62017 3029.5193 Z" fill="#fdfeff"/>
      </g>
      <g id="Graphic_284">
        <path d="M 283.79017 2968.8693 C 281.40017 2968.6893 279.00017 2969.1393 276.79017 2968.0493 C 274.70017 2967.0193 274.04017 2965.8093 276.27017 2964.1193 C 279.21017 2961.8793 288.40017 2961.4693 291.41017 2963.6393 C 293.61017 2965.2293 293.40017 2966.7893 291.06017 2968.0393 C 288.74017 2969.2693 286.18017 2968.6193 283.78017 2968.8793 Z" fill="#4b6c76"/>
      </g>
      <g id="Graphic_283">
        <path d="M 148.78017 2985.4193 C 155.58017 2986.8093 162.55017 2986.0793 169.39017 2987.0793 C 171.34017 2987.3593 173.35017 2987.0593 173.94017 2989.6093 C 174.54017 2992.2093 178.10017 2990.2093 178.75017 2992.7093 C 168.46017 2991.9293 158.39017 2990.1093 148.78017 2986.2293 L 148.78017 2985.4293 Z" fill="#b9d8de"/>
      </g>
      <g id="Graphic_282">
        <path d="M 280.62017 3029.5293 C 280.59017 3024.3993 280.41017 3019.2593 280.57017 3014.1393 C 280.67017 3011.1393 279.49017 3009.8493 276.70017 3010.5893 C 273.11017 3011.5293 268.91017 3011.0793 266.36017 3014.6993 C 264.12017 3011.3393 265.18017 3009.5493 269.02017 3008.9593 C 273.22017 3008.3093 276.70017 3005.9093 281.31017 3003.7393 C 281.31017 3010.0093 281.43017 3015.8593 281.25017 3021.6993 C 281.17017 3024.3093 282.28017 3027.0593 280.61017 3029.5393 Z" fill="#b9d8de"/>
      </g>
      <g id="Graphic_281">
        <path d="M 301.49017 3015.5893 C 301.53017 3013.4693 300.48017 3012.4693 298.44017 3011.8393 C 288.29017 3008.6793 287.54017 3009.1593 287.43017 3019.6093 C 287.40017 3022.9393 287.35017 3026.2693 287.31017 3029.6093 C 285.71017 3023.4093 287.40017 3017.1393 286.93017 3010.8993 C 286.77017 3008.7393 286.90017 3006.5593 286.90017 3003.9193 C 290.98017 3005.8093 294.30017 3007.6693 298.03017 3008.6393 C 303.45017 3010.0493 303.42017 3010.1593 301.48017 3015.5993 Z" fill="#c9dadb"/>
      </g>
      <g id="Graphic_280">
        <path d="M 302.56017 2958.7393 C 304.28017 2958.8193 305.42017 2958.1693 305.65017 2956.3393 C 308.57017 2959.8593 311.28017 2963.5193 313.90017 2968.3793 C 310.34017 2967.1393 307.68017 2966.6593 306.33017 2963.5293 C 305.55017 2961.7293 303.84017 2960.3293 302.55017 2958.7493 Z" fill="#92aeb9"/>
      </g>
      <g id="Graphic_279">
        <path d="M 292.18017 3196.1693 C 294.34017 3194.0293 296.64017 3194.5093 298.98017 3195.7993 C 296.76017 3196.7293 294.47017 3196.4493 292.18017 3196.1693 Z" fill="#50a5b8"/>
      </g>
      <g id="Graphic_278">
        <path d="M 442.38017 2969.5693 C 441.70017 2968.2693 442.52017 2967.6793 443.51017 2967.1793 C 443.38017 2968.0993 443.23017 2968.9993 442.38017 2969.5693 Z" fill="#dbeaef"/>
      </g>
      <g id="Graphic_277">
        <path d="M 268.67017 3195.8593 C 269.60017 3195.5793 270.52017 3195.4893 271.38017 3196.0993 C 270.45017 3196.4193 269.54017 3196.3793 268.67017 3195.8593 Z" fill="#50a5b8"/>
      </g>
      <g id="Graphic_276">
        <path d="M 439.96017 2863.6493 C 440.14017 2863.7893 440.34017 2863.9293 440.52017 2864.0693 C 440.42017 2864.1493 440.28017 2864.3193 440.24017 2864.2993 C 440.04017 2864.1893 439.86017 2864.0293 439.68017 2863.8893 L 439.96017 2863.6493 Z" fill="#50a5b8"/>
      </g>
      <g id="Graphic_275">
        <path d="M 207.16017 2868.6693 C 205.39017 2866.6293 202.33017 2866.9893 200.10017 2865.2193 C 204.67017 2863.0493 209.11017 2864.8693 213.33017 2864.2993 C 218.60017 2863.5993 223.84017 2863.6193 229.09017 2863.7193 C 236.98017 2863.8693 244.43017 2865.8093 250.96017 2870.3993 C 260.71017 2877.2693 271.76017 2880.1493 283.40017 2880.2193 C 296.50017 2880.2993 308.76017 2877.1493 319.55017 2868.9793 C 324.47017 2865.2493 330.86017 2864.6593 336.89017 2863.7593 C 340.70017 2863.1793 344.55017 2862.4893 348.45017 2862.8593 C 349.79017 2862.9893 351.27017 2862.5393 352.31017 2863.8393 C 350.92017 2865.2093 349.53017 2866.5893 348.15017 2867.9593 C 345.86017 2868.8093 343.46017 2868.6593 341.13017 2868.5293 C 331.41017 2867.9493 322.76017 2870.7093 315.03017 2876.5593 C 312.36017 2878.5793 309.53017 2880.4293 306.31017 2881.3693 C 289.09017 2886.3493 272.12017 2886.4793 255.62017 2878.4793 C 252.14017 2875.8793 248.62017 2873.3693 244.53017 2871.7793 C 242.60017 2870.3293 240.35017 2869.7293 238.02017 2869.4093 C 227.77017 2868.0193 217.46017 2868.4093 207.16017 2868.6793 Z" fill="#b9d8de"/>
      </g>
      <g id="Graphic_274">
        <path d="M 255.62017 2878.4593 C 272.12017 2886.4493 289.09017 2886.3293 306.31017 2881.3493 C 309.53017 2880.4193 312.36017 2878.5593 315.03017 2876.5393 C 322.76017 2870.6993 331.41017 2867.9493 341.13017 2868.5093 C 343.47017 2868.6493 345.87017 2868.7993 348.15017 2867.9393 C 352.31017 2868.8593 356.55017 2868.1693 360.74017 2868.5593 C 372.64017 2869.7793 384.53017 2870.9993 396.43017 2872.2193 C 398.46017 2872.6493 400.49017 2873.0793 402.52017 2873.5093 C 398.55017 2876.5393 403.39017 2876.7793 404.05017 2878.3393 C 388.53017 2875.4893 372.86017 2874.0093 357.11017 2873.1593 C 352.99017 2872.9293 349.11017 2873.0993 345.75017 2875.8093 C 344.62017 2872.0793 341.51017 2873.0593 338.87017 2872.9093 C 330.71017 2873.2293 323.28017 2875.4793 316.62017 2880.4493 C 311.62017 2884.1893 305.90017 2886.6693 299.74017 2887.9893 C 292.32017 2889.0593 284.85017 2888.9593 277.40017 2888.6693 C 269.33017 2888.3493 261.45017 2887.0993 254.71017 2882.0593 C 255.01017 2880.8493 255.32017 2879.6493 255.62017 2878.4393 L 255.62017 2878.4593 Z" fill="#4b6c76"/>
      </g>
      <g id="Graphic_273">
        <path d="M 207.16017 2868.6693 C 217.46017 2868.3893 227.76017 2867.9993 238.02017 2869.3993 C 240.36017 2869.7193 242.60017 2870.3193 244.53017 2871.7693 C 242.53017 2872.9693 239.06017 2869.1093 238.03017 2873.6593 C 235.55017 2873.3993 233.07017 2873.1293 230.60017 2872.8793 C 227.59017 2872.6393 224.62017 2872.5193 222.69017 2875.5293 C 219.93017 2874.4193 217.47017 2872.8593 214.13017 2873.0793 C 201.72017 2873.8893 189.29017 2874.5193 177.00017 2876.3793 C 170.64017 2877.3493 164.09017 2877.6793 158.09017 2880.4293 C 157.78017 2880.3793 157.46017 2880.3393 157.16017 2880.2893 C 157.53017 2878.4493 158.32017 2876.6393 157.66017 2874.7193 L 157.53017 2874.3593 C 159.33017 2874.3393 161.13017 2874.3193 162.94017 2874.2893 C 163.08017 2875.5493 163.43017 2876.9093 164.93017 2876.7393 C 166.92017 2876.5193 166.09017 2874.7493 166.24017 2873.5493 C 167.37017 2872.3393 169.00017 2873.4393 170.22017 2872.6593 C 182.45017 2870.5693 194.83017 2869.8093 207.16017 2868.6593 Z" fill="#4b6c76"/>
      </g>
      <g id="Graphic_272">
        <path d="M 447.49017 2890.3193 C 445.82017 2890.6593 444.23017 2891.4393 442.46017 2891.1893 C 439.43017 2883.2893 433.34017 2879.4293 425.31017 2877.8593 C 420.43017 2876.9093 415.65017 2875.4993 410.82017 2874.2993 C 410.67017 2872.5093 408.79017 2871.8493 408.22017 2870.3393 C 408.96017 2869.4993 409.93017 2869.4093 410.89017 2869.7393 C 419.43017 2872.6193 428.55017 2873.1093 437.07017 2876.1593 C 444.14017 2878.6993 447.25017 2882.7193 447.50017 2890.3193 Z" fill="#b9d8de"/>
      </g>
      <g id="Graphic_271">
        <path d="M 157.52017 2874.3493 C 157.52017 2874.3493 157.65017 2874.7093 157.65017 2874.7193 C 151.73017 2875.3493 146.02017 2876.9493 140.27017 2878.3893 C 133.89017 2879.9993 128.98017 2883.4293 126.17017 2889.5293 C 124.28017 2889.0093 122.38017 2888.4993 120.39017 2888.6993 C 120.60017 2883.3493 124.02017 2878.7293 129.13017 2876.8093 C 137.74017 2873.5693 146.88017 2872.5493 155.76017 2870.4493 C 157.34017 2870.0693 158.93017 2869.2993 160.65017 2869.7393 C 160.28017 2871.7393 156.89017 2871.6893 157.52017 2874.3593 Z" fill="#b9d8de"/>
      </g>
      <g id="Graphic_270">
        <path d="M 408.22017 2870.3393 C 408.80017 2871.8493 410.67017 2872.5093 410.82017 2874.2993 C 407.96017 2875.0793 405.32017 2873.4193 402.53017 2873.5193 C 400.50017 2873.0893 398.47017 2872.6593 396.44017 2872.2393 C 395.50017 2869.2093 392.44017 2869.4393 390.29017 2868.3093 C 388.88017 2867.5693 387.25017 2867.2293 385.79017 2866.4193 C 393.42017 2866.8993 401.03017 2867.3693 408.23017 2870.3393 Z" fill="#92aeb9"/>
      </g>
      <g id="Graphic_269">
        <path d="M 157.52017 2874.3493 C 156.89017 2871.6793 160.28017 2871.7293 160.65017 2869.7293 C 167.61017 2867.8393 174.72017 2866.8993 181.92017 2866.3493 C 177.96017 2868.3893 173.31017 2869.0793 170.22017 2872.6693 C 169.00017 2873.4493 167.36017 2872.3493 166.24017 2873.5593 C 165.09017 2873.5593 163.91017 2873.4893 162.94017 2874.2893 C 161.14017 2874.3193 159.34017 2874.3293 157.53017 2874.3593 Z" fill="#92aeb9"/>
      </g>
      <g id="Graphic_268">
        <path d="M 360.74017 2868.5693 C 356.55017 2868.1793 352.31017 2868.8693 348.15017 2867.9493 C 349.54017 2866.5693 350.93017 2865.1993 352.31017 2863.8293 C 357.37017 2863.2493 362.33017 2864.0593 367.66017 2864.8493 C 365.75017 2867.3893 362.64017 2866.8693 360.73017 2868.5693 Z" fill="#91c7d2"/>
      </g>
      <g id="Graphic_267">
        <path d="M 126.18017 2889.5193 C 129.00017 2883.4193 133.90017 2879.9893 140.28017 2878.3793 C 146.03017 2876.9393 151.74017 2875.3393 157.66017 2874.7093 C 158.31017 2876.6393 157.52017 2878.4393 157.16017 2880.2793 C 154.39017 2880.7093 151.48017 2879.5893 148.81017 2881.0793 C 146.72017 2881.2393 144.68017 2881.5893 142.84017 2882.6793 C 134.30017 2884.1193 130.46017 2887.7993 128.79017 2896.1393 C 128.19017 2899.1293 127.67017 2902.1193 127.78017 2905.1893 C 127.03017 2906.5993 127.20017 2908.0893 127.39017 2909.5993 C 127.37017 2910.1293 127.36017 2910.6493 127.35017 2911.1693 C 126.57017 2924.8293 127.54017 2938.3093 131.46017 2951.4993 C 134.53017 2961.8493 140.24017 2970.0093 150.55017 2974.2193 C 156.72017 2976.7393 163.01017 2978.8793 169.67017 2979.6993 C 175.80017 2981.5393 182.20017 2981.2593 188.48017 2981.8793 C 190.47017 2982.0793 193.54017 2981.6493 193.01017 2978.0093 C 207.74017 2977.2293 220.51017 2972.0093 230.94017 2961.3793 C 237.96017 2954.2293 243.32017 2946.1693 245.48017 2936.2393 C 246.75017 2933.6993 246.31017 2930.6293 247.91017 2928.1793 C 250.73017 2925.6793 250.65017 2921.3393 253.71017 2918.9793 C 254.09017 2924.8993 252.98017 2930.7293 251.90017 2937.5493 C 255.20017 2933.7393 257.67017 2930.6293 260.40017 2927.7593 C 273.00017 2914.4893 292.95017 2914.0493 306.36017 2926.4793 C 309.85017 2929.7093 312.32017 2933.7393 315.61017 2937.0893 C 315.75017 2937.2993 315.65017 2938.0193 316.21017 2937.3793 C 316.04017 2937.2493 315.88017 2937.1093 315.72017 2936.9693 C 315.19017 2930.0693 314.01017 2923.1893 314.93017 2916.2293 C 317.57017 2916.5093 318.54017 2918.1593 318.12017 2920.5593 C 317.28017 2925.3093 318.30017 2929.7593 319.88017 2934.1693 C 320.44017 2935.7293 320.76017 2937.4593 322.86017 2937.6693 C 324.32017 2941.0893 324.88017 2944.8993 327.35017 2947.8793 C 327.66017 2948.6293 327.84017 2949.4693 328.28017 2950.1293 C 341.37017 2969.6593 359.16017 2979.8293 383.17017 2977.4893 C 384.21017 2982.1993 387.82017 2981.4293 391.04017 2980.9693 C 393.74017 2980.5893 396.30017 2979.2793 399.13017 2979.7293 C 399.28017 2981.1893 401.11017 2981.9593 400.75017 2983.6293 C 398.12017 2985.0993 395.19017 2984.3593 392.42017 2984.7593 C 383.16017 2985.3693 374.02017 2984.9493 364.84017 2983.0693 C 355.39017 2981.1393 347.18017 2976.8893 339.32017 2971.6593 C 337.83017 2970.6693 336.34017 2969.6693 334.85017 2968.6693 C 324.14017 2958.9793 316.91017 2946.5993 308.61017 2935.0293 C 298.75017 2921.2893 283.44017 2917.6893 269.49017 2925.5093 C 265.05017 2927.9993 261.66017 2931.6793 258.78017 2935.7993 C 255.37017 2940.6793 252.01017 2945.6093 248.79017 2950.6293 C 242.87017 2959.8393 235.25017 2967.3793 226.35017 2973.6793 C 215.63017 2980.0993 204.22017 2984.2393 191.56017 2984.7393 C 175.90017 2985.3493 160.65017 2983.8593 146.27017 2977.0893 C 130.15017 2968.8893 126.21017 2953.6293 123.79017 2937.6993 C 121.85017 2924.8893 122.52017 2911.9793 123.87017 2899.1393 C 124.21017 2895.8793 125.38017 2892.6993 126.17017 2889.4793 L 126.17017 2889.4993 Z" fill="#547581"/>
      </g>
      <g id="Graphic_266">
        <path d="M 400.74017 2983.6593 C 401.10017 2981.9793 399.27017 2981.2193 399.12017 2979.7593 C 399.60017 2979.4593 400.07017 2979.1493 400.55017 2978.8493 C 419.67017 2976.4093 431.93017 2968.0393 436.35017 2952.5193 C 442.07017 2932.4793 442.78017 2912.3393 438.14017 2892.0293 C 439.52017 2892.0293 440.90017 2892.0493 442.28017 2892.0593 C 444.93017 2899.4993 445.04017 2907.3093 445.31017 2915.0493 C 445.77017 2928.1493 444.48017 2941.0693 440.56017 2953.6793 C 437.12017 2964.7793 430.30017 2972.8593 419.92017 2977.9893 C 414.44017 2980.0793 409.00017 2982.2793 403.16017 2983.2593 C 402.35017 2983.3893 401.54017 2983.5293 400.73017 2983.6693 Z" fill="#4b6c76"/>
      </g>
      <g id="Graphic_265">
        <path d="M 442.29017 2892.0493 C 440.91017 2892.0493 439.53017 2892.0293 438.15017 2892.0193 C 437.84017 2891.7493 437.53017 2891.4793 437.22017 2891.2093 C 435.89017 2886.9193 432.63017 2884.7593 428.60017 2883.5793 C 425.55017 2882.6993 422.43017 2882.0393 419.35017 2881.2893 C 415.50017 2881.6193 412.12017 2879.0793 408.26017 2879.4993 C 406.86017 2879.1193 405.45017 2878.7293 404.05017 2878.3493 C 403.39017 2876.7893 398.55017 2876.5393 402.52017 2873.5193 C 405.32017 2873.4093 407.95017 2875.0793 410.81017 2874.2993 C 415.64017 2875.4993 420.43017 2876.9093 425.30017 2877.8593 C 433.33017 2879.4293 439.42017 2883.2893 442.45017 2891.1893 C 442.39017 2891.4693 442.33017 2891.7693 442.27017 2892.0493 Z" fill="#547581"/>
      </g>
      <g id="Graphic_264">
        <path d="M 403.17017 2983.2493 C 409.00017 2982.2693 414.44017 2980.0793 419.93017 2977.9793 C 421.37017 2983.8093 421.24017 2983.9493 415.37017 2985.5093 C 412.22017 2986.3493 409.22017 2987.6493 405.78017 2986.3693 C 404.09017 2985.7393 403.22017 2984.9693 403.17017 2983.2293 Z" fill="#91c7d2"/>
      </g>
      <g id="Graphic_263">
        <path d="M 238.03017 2873.6593 C 239.05017 2869.0993 242.53017 2872.9593 244.53017 2871.7693 C 248.62017 2873.3593 252.14017 2875.8793 255.62017 2878.4693 C 255.32017 2879.6693 255.01017 2880.8793 254.71017 2882.0893 C 248.95017 2879.6893 244.23017 2875.2193 238.03017 2873.6693 Z" fill="#547581"/>
      </g>
      <g id="Graphic_262">
        <path d="M 360.23017 2951.2293 C 369.55017 2951.3193 377.02017 2943.8093 377.01017 2934.3293 C 377.01017 2925.0893 369.97017 2917.8793 360.87017 2917.7793 C 351.54017 2917.6893 344.24017 2924.7993 344.07017 2934.1493 C 343.90017 2943.3793 351.24017 2951.1293 360.22017 2951.2193 Z M 404.04017 2878.3593 C 405.44017 2878.7393 406.85017 2879.1293 408.25017 2879.5093 C 408.80017 2880.0493 409.36017 2880.5893 409.91017 2881.1293 C 409.78017 2882.6093 410.59017 2883.6393 411.37017 2884.8093 C 414.71017 2889.8093 418.06017 2894.8393 418.30017 2901.1593 C 420.78017 2906.8293 419.74017 2912.8093 419.85017 2918.6793 C 419.88017 2920.3693 418.20017 2922.0693 419.93017 2923.7293 C 418.45017 2926.6793 416.86017 2929.5893 415.53017 2932.6093 C 408.98017 2947.5393 398.39017 2958.4493 383.06017 2964.1193 C 366.82017 2970.1193 351.60017 2967.9193 337.64017 2957.2393 C 333.90017 2954.3793 331.37017 2950.3193 327.32017 2947.9093 C 324.85017 2944.9293 324.29017 2941.1193 322.83017 2937.6993 C 320.69017 2929.9993 319.78017 2922.1793 321.08017 2914.2593 C 323.76017 2897.9293 332.26017 2885.2693 345.73017 2875.8193 C 349.09017 2873.1093 352.97017 2872.9493 357.09017 2873.1693 C 372.84017 2874.0193 388.51017 2875.4993 404.03017 2878.3493 Z" fill="#fdfeff"/>
      </g>
      <g id="Graphic_261">
        <path d="M 238.03017 2873.6593 C 244.22017 2875.2093 248.94017 2879.6793 254.71017 2882.0793 C 261.44017 2887.1193 269.34017 2888.3693 277.40017 2888.6893 C 284.85017 2888.9793 292.32017 2889.0693 299.74017 2888.0093 C 299.82017 2891.2793 301.85017 2891.4493 304.35017 2890.9193 C 311.06017 2889.5293 316.49017 2885.6693 321.98017 2881.8993 C 325.43017 2879.5293 329.00017 2877.4093 333.45017 2877.8893 C 323.25017 2888.7293 316.20017 2901.0893 314.91017 2916.2293 C 314.00017 2923.1893 315.18017 2930.0593 315.70017 2936.9693 L 315.59017 2937.0793 C 312.30017 2933.7293 309.83017 2929.6993 306.34017 2926.4693 C 292.93017 2914.0393 272.98017 2914.4793 260.38017 2927.7493 C 257.65017 2930.6193 255.17017 2933.7293 251.88017 2937.5393 C 252.95017 2930.7193 254.06017 2924.8993 253.69017 2918.9693 C 253.74017 2918.6093 253.80017 2918.2393 253.85017 2917.8893 C 257.42017 2911.0393 261.03017 2904.2093 264.55017 2897.3293 C 267.40017 2891.7693 267.35017 2891.7593 261.55017 2889.9793 C 260.51017 2889.6493 259.46017 2889.2493 258.51017 2888.6993 C 253.24017 2885.6993 248.03017 2882.5793 242.72017 2879.6493 C 240.49017 2878.4193 238.17017 2876.7793 235.47017 2878.6793 C 235.09017 2878.6593 234.71017 2878.6293 234.34017 2878.5993 C 234.80017 2875.5593 230.17017 2875.8493 230.58017 2872.8593 C 233.06017 2873.1193 235.54017 2873.3893 238.01017 2873.6393 Z" fill="#acd2d8"/>
      </g>
      <g id="Graphic_260">
        <path d="M 314.92017 2916.2493 C 316.21017 2901.1093 323.26017 2888.7493 333.46017 2877.9093 C 335.22017 2876.2093 337.81017 2875.3993 338.86017 2872.9293 C 341.51017 2873.0593 344.61017 2872.0993 345.74017 2875.8293 C 332.27017 2885.2793 323.77017 2897.9293 321.09017 2914.2693 C 319.79017 2922.1993 320.71017 2930.0193 322.84017 2937.7093 C 320.73017 2937.4793 320.41017 2935.7693 319.86017 2934.2093 C 318.28017 2929.7993 317.26017 2925.3493 318.10017 2920.5993 C 318.53017 2918.1993 317.56017 2916.5493 314.91017 2916.2693 Z" fill="#638086"/>
      </g>
      <g id="Graphic_259">
        <path d="M 338.86017 2872.9193 C 337.80017 2875.3893 335.21017 2876.1893 333.46017 2877.8993 C 329.00017 2877.4193 325.44017 2879.5393 321.99017 2881.9093 C 316.50017 2885.6693 311.07017 2889.5393 304.36017 2890.9293 C 301.86017 2891.4493 299.83017 2891.2893 299.75017 2888.0193 C 305.91017 2886.6993 311.62017 2884.2193 316.63017 2880.4793 C 323.29017 2875.4993 330.71017 2873.2493 338.88017 2872.9393 Z" fill="#91c7d2"/>
      </g>
      <g id="Graphic_258">
        <path d="M 207.60017 2917.7893 C 198.14017 2917.9093 191.29017 2925.0193 191.38017 2934.6393 C 191.47017 2943.8893 198.64017 2951.1993 207.61017 2951.1993 C 216.58017 2951.1993 223.96017 2943.6693 223.89017 2934.2193 C 223.82017 2924.9493 216.61017 2917.6693 207.59017 2917.7893 Z M 247.91017 2928.1793 C 246.32017 2930.6193 246.75017 2933.6893 245.48017 2936.2393 C 244.04017 2937.0593 243.54017 2938.5593 242.88017 2939.9193 C 238.06017 2949.7593 230.42017 2956.8393 220.89017 2961.9093 C 199.60017 2973.2393 173.10017 2964.9493 158.94017 2947.7493 C 144.07017 2929.6893 141.28017 2906.1793 154.93017 2886.5093 C 155.74017 2885.3393 156.47017 2884.1793 156.16017 2882.6693 C 156.80017 2881.9193 157.44017 2881.1793 158.08017 2880.4293 C 164.08017 2877.6793 170.63017 2877.3393 176.99017 2876.3793 C 189.29017 2874.5093 201.71017 2873.8893 214.12017 2873.0793 C 217.46017 2872.8593 219.92017 2874.4293 222.68017 2875.5293 C 225.29017 2877.4693 227.90017 2879.4093 230.52017 2881.3493 C 230.77017 2881.8293 230.91017 2882.4193 231.28017 2882.7693 C 239.49017 2890.6793 244.39017 2900.3593 246.78017 2911.4193 C 247.97017 2916.9593 247.94017 2922.5593 247.91017 2928.1693 Z" fill="#fdfeff"/>
      </g>
      <g id="Graphic_257">
        <path d="M 158.09017 2880.4293 C 157.45017 2881.1793 156.81017 2881.9193 156.17017 2882.6693 C 139.01017 2898.3493 134.66017 2924.7393 142.60017 2943.5293 C 151.90017 2965.5093 168.87017 2977.2193 193.00017 2977.9993 C 193.52017 2981.6493 190.46017 2982.0693 188.47017 2981.8693 C 182.20017 2981.2493 175.80017 2981.5293 169.66017 2979.6893 C 168.82017 2978.4693 167.42017 2978.0893 166.21017 2977.4593 C 141.51017 2964.8193 128.27017 2936.8993 134.40017 2909.6593 C 136.79017 2899.0193 141.11017 2889.1493 148.80017 2881.0793 C 151.46017 2879.5893 154.38017 2880.6993 157.15017 2880.2793 C 157.46017 2880.3193 157.78017 2880.3693 158.08017 2880.4093 Z" fill="#638086"/>
      </g>
      <g id="Graphic_256">
        <path d="M 230.52017 2881.3493 C 227.91017 2879.4093 225.30017 2877.4693 222.68017 2875.5293 C 224.61017 2872.5293 227.57017 2872.6293 230.59017 2872.8793 C 230.19017 2875.8793 234.81017 2875.5793 234.36017 2878.6193 C 232.67017 2878.9493 231.20017 2879.5993 230.52017 2881.3493 Z" fill="#547581"/>
      </g>
      <g id="Graphic_255">
        <path d="M 162.93017 2874.2793 C 163.91017 2873.4893 165.07017 2873.5493 166.23017 2873.5493 C 166.08017 2874.7393 166.92017 2876.5093 164.92017 2876.7393 C 163.41017 2876.9093 163.07017 2875.5393 162.93017 2874.2893 Z" fill="#547581"/>
      </g>
      <g id="Graphic_254">
        <path d="M 193.00017 2977.9993 C 168.88017 2977.2193 151.90017 2965.5193 142.60017 2943.5293 C 134.66017 2924.7393 139.00017 2898.3493 156.17017 2882.6693 C 156.47017 2884.1793 155.74017 2885.3393 154.94017 2886.5093 C 141.30017 2906.1793 144.08017 2929.6793 158.95017 2947.7493 C 173.11017 2964.9493 199.61017 2973.2293 220.90017 2961.9093 C 230.43017 2956.8493 238.06017 2949.7593 242.89017 2939.9193 C 243.56017 2938.5693 244.04017 2937.0593 245.49017 2936.2393 C 243.32017 2946.1693 237.96017 2954.2393 230.95017 2961.3793 C 220.51017 2972.0093 207.75017 2977.2293 193.02017 2978.0093 Z" fill="#c9dadb"/>
      </g>
      <g id="Graphic_253">
        <path d="M 327.33017 2947.9093 C 331.39017 2950.3293 333.92017 2954.3893 337.65017 2957.2393 C 351.62017 2967.9293 366.83017 2970.1293 383.07017 2964.1193 C 398.40017 2958.4493 408.99017 2947.5293 415.54017 2932.6093 C 416.87017 2929.5893 418.46017 2926.6893 419.94017 2923.7293 C 421.57017 2922.9093 421.78017 2921.0893 422.74017 2919.8193 C 424.52017 2917.5193 424.83017 2914.1093 427.98017 2912.8393 C 431.46017 2929.7993 427.96017 2944.9793 416.77017 2958.4093 C 407.91017 2969.0393 396.62017 2975.1293 383.14017 2977.5093 C 359.13017 2979.8493 341.35017 2969.6893 328.25017 2950.1493 C 327.81017 2949.4893 327.62017 2948.6593 327.32017 2947.8993 Z" fill="#c9dadb"/>
      </g>
      <g id="Graphic_252">
        <path d="M 148.80017 2881.0893 C 141.10017 2889.1593 136.79017 2899.0293 134.40017 2909.6693 C 128.27017 2936.9093 141.51017 2964.8293 166.21017 2977.4693 C 167.42017 2978.0893 168.82017 2978.4693 169.66017 2979.6993 C 163.00017 2978.8793 156.70017 2976.7493 150.54017 2974.2193 C 140.23017 2969.9993 134.52017 2961.8493 131.45017 2951.4993 C 127.54017 2938.3193 126.55017 2924.8293 127.34017 2911.1693 C 128.07017 2910.9093 127.87017 2914.4293 128.86017 2911.7793 C 132.64017 2901.6393 137.86017 2892.2393 142.84017 2882.6893 C 144.68017 2881.5993 146.72017 2881.2493 148.81017 2881.0893 Z" fill="#91c7d2"/>
      </g>
      <g id="Graphic_251">
        <path d="M 383.15017 2977.5193 C 396.63017 2975.1393 407.92017 2969.0493 416.78017 2958.4193 C 427.97017 2944.9893 431.47017 2929.8193 427.99017 2912.8493 C 428.02017 2911.4493 428.05017 2910.0493 428.07017 2908.6493 C 430.08017 2907.5593 429.57017 2904.1893 432.39017 2903.8293 C 432.56017 2904.7793 432.67017 2905.7393 432.91017 2906.6693 C 439.33017 2933.1593 430.97017 2956.9593 409.81017 2972.6393 C 406.81017 2974.8593 403.17017 2976.0893 400.55017 2978.8493 C 400.07017 2979.1493 399.60017 2979.4593 399.12017 2979.7593 C 396.28017 2979.3193 393.72017 2980.6193 391.03017 2980.9993 C 387.81017 2981.4593 384.20017 2982.2293 383.16017 2977.5193 Z" fill="#638086"/>
      </g>
      <g id="Graphic_250">
        <path d="M 230.52017 2881.3493 C 231.20017 2879.5993 232.67017 2878.9593 234.36017 2878.6193 C 234.74017 2878.6393 235.12017 2878.6693 235.49017 2878.6993 C 244.19017 2886.7793 249.71017 2896.5993 252.23017 2908.2393 C 252.92017 2911.4493 252.09017 2914.9093 253.87017 2917.8993 C 253.82017 2918.2593 253.76017 2918.6293 253.71017 2918.9793 C 250.65017 2921.3293 250.72017 2925.6593 247.90017 2928.1793 C 247.93017 2922.5693 247.97017 2916.9693 246.77017 2911.4293 C 244.38017 2900.3693 239.48017 2890.6893 231.27017 2882.7793 C 230.90017 2882.4293 230.76017 2881.8393 230.51017 2881.3593 Z" fill="#92aeb9"/>
      </g>
      <g id="Graphic_249">
        <path d="M 142.82017 2882.6893 C 137.84017 2892.2293 132.62017 2901.6393 128.84017 2911.7793 C 127.86017 2914.4293 128.05017 2910.9093 127.32017 2911.1693 C 127.34017 2910.6393 127.35017 2910.1193 127.36017 2909.5993 C 128.25017 2908.1993 127.98017 2906.6993 127.75017 2905.1893 C 127.64017 2902.1293 128.16017 2899.1293 128.76017 2896.1393 C 130.43017 2887.7993 134.28017 2884.1193 142.81017 2882.6793 Z" fill="#dbeaef"/>
      </g>
      <g id="Graphic_248">
        <path d="M 127.76017 2905.1893 C 127.99017 2906.6893 128.26017 2908.1893 127.37017 2909.5993 C 127.18017 2908.1093 127.01017 2906.6093 127.76017 2905.1893 Z" fill="#91c7d2"/>
      </g>
      <g id="Graphic_247">
        <path d="M 315.71017 2936.9893 C 315.88017 2937.1193 316.04017 2937.2593 316.20017 2937.3993 C 315.64017 2938.0293 315.74017 2937.3193 315.60017 2937.1093 L 315.71017 2936.9993 Z" fill="#acd2d8"/>
      </g>
      <g id="Graphic_246">
        <path d="M 400.55017 2978.8393 C 403.17017 2976.0793 406.82017 2974.8593 409.81017 2972.6393 C 430.95017 2956.9693 439.32017 2933.1593 432.91017 2906.6693 C 432.68017 2905.7393 432.57017 2904.7793 432.39017 2903.8193 C 432.39017 2903.2193 432.39017 2902.6093 432.41017 2902.0093 C 434.01017 2898.4093 435.62017 2894.8093 437.22017 2891.1993 C 437.53017 2891.4693 437.84017 2891.7393 438.15017 2892.0093 C 442.79017 2912.3293 442.07017 2932.4593 436.36017 2952.4993 C 431.94017 2968.0093 419.68017 2976.3893 400.56017 2978.8293 Z" fill="#91c7d2"/>
      </g>
      <g id="Graphic_245">
        <path d="M 437.22017 2891.2093 C 435.62017 2894.8093 434.01017 2898.4093 432.41017 2902.0193 C 431.00017 2901.8293 431.07017 2900.5893 430.59017 2899.6393 C 428.82017 2896.0693 428.06017 2891.8393 424.27017 2889.5193 C 424.63017 2885.5693 421.25017 2883.8793 419.34017 2881.2993 C 422.43017 2882.0493 425.55017 2882.6993 428.59017 2883.5893 C 432.62017 2884.7693 435.88017 2886.9193 437.21017 2891.2193 Z" fill="#dbeaef"/>
      </g>
      <g id="Graphic_244">
        <path d="M 419.35017 2881.2993 C 421.26017 2883.8793 424.64017 2885.5793 424.28017 2889.5193 C 423.39017 2891.1493 422.49017 2892.7793 421.61017 2894.4093 C 417.99017 2889.7393 414.86017 2884.6393 409.93017 2881.1193 C 409.38017 2880.5793 408.82017 2880.0393 408.27017 2879.4993 C 412.13017 2879.0793 415.51017 2881.6193 419.36017 2881.2893 Z" fill="#638086"/>
      </g>
      <g id="Graphic_243">
        <path d="M 359.90017 2927.5793 C 359.28017 2924.7593 357.61017 2922.8493 354.57017 2923.0193 C 351.73017 2923.1693 349.96017 2925.1793 350.09017 2927.9293 C 350.22017 2930.7093 351.72017 2933.0393 354.99017 2932.8493 C 358.03017 2932.6693 359.51017 2930.6493 359.91017 2927.5793 Z M 360.23017 2951.2293 C 351.24017 2951.1393 343.90017 2943.3893 344.08017 2934.1593 C 344.25017 2924.8093 351.55017 2917.6993 360.88017 2917.7893 C 369.98017 2917.8793 377.02017 2925.0993 377.02017 2934.3393 C 377.02017 2943.5793 369.56017 2951.3293 360.24017 2951.2393 Z" fill="#15343f"/>
      </g>
      <g id="Graphic_242">
        <path d="M 428.07017 2908.6493 C 428.05017 2910.0493 428.01017 2911.4493 427.99017 2912.8593 C 424.84017 2914.1293 424.53017 2917.5293 422.75017 2919.8393 C 421.77017 2921.1093 421.57017 2922.9393 419.95017 2923.7493 C 418.22017 2922.0893 419.91017 2920.3793 419.87017 2918.6993 C 419.74017 2912.8293 420.80017 2906.8393 418.32017 2901.1793 C 421.12017 2900.7193 419.52017 2896.6193 422.43017 2896.2493 C 424.49017 2900.3093 425.26017 2904.9593 428.09017 2908.6693 Z" fill="#dbeaef"/>
      </g>
      <g id="Graphic_241">
        <path d="M 422.41017 2896.2293 C 419.51017 2896.5993 421.10017 2900.6993 418.30017 2901.1593 C 418.06017 2894.8393 414.71017 2889.7993 411.37017 2884.8093 C 410.59017 2883.6393 409.78017 2882.6093 409.91017 2881.1293 C 414.84017 2884.6393 417.97017 2889.7493 421.59017 2894.4193 C 421.86017 2895.0293 422.12017 2895.6293 422.39017 2896.2393 Z" fill="#c9dadb"/>
      </g>
      <g id="Graphic_240">
        <path d="M 253.87017 2917.8993 C 252.09017 2914.8993 252.93017 2911.4493 252.23017 2908.2393 C 249.71017 2896.5993 244.20017 2886.7793 235.49017 2878.6993 C 238.19017 2876.7993 240.51017 2878.4293 242.74017 2879.6693 C 248.05017 2882.6093 253.25017 2885.7193 258.53017 2888.7093 C 259.48017 2889.2493 260.52017 2889.6593 261.57017 2889.9893 C 267.37017 2891.7793 267.41017 2891.7793 264.57017 2897.3393 C 261.04017 2904.2193 257.44017 2911.0493 253.87017 2917.8993 Z" fill="#c9dadb"/>
      </g>
      <g id="Graphic_239">
        <path d="M 197.04017 2928.0693 C 197.57017 2931.0893 199.20017 2932.9693 202.34017 2932.7393 C 205.13017 2932.5393 207.11017 2930.8893 207.01017 2927.9393 C 206.90017 2924.9293 204.95017 2923.0193 201.95017 2923.0093 C 198.85017 2923.0093 197.36017 2925.0793 197.04017 2928.0593 Z M 207.60017 2917.7993 C 216.61017 2917.6793 223.83017 2924.9593 223.90017 2934.2293 C 223.97017 2943.6893 216.75017 2951.2193 207.62017 2951.2093 C 198.65017 2951.2093 191.48017 2943.8893 191.39017 2934.6493 C 191.29017 2925.0393 198.14017 2917.9193 207.61017 2917.7993 Z" fill="#15343f"/>
      </g>
      <g id="Graphic_238">
        <path d="M 422.41017 2896.2293 C 422.14017 2895.6193 421.88017 2895.0193 421.61017 2894.4093 C 422.50017 2892.7793 423.40017 2891.1493 424.28017 2889.5193 C 428.07017 2891.8393 428.82017 2896.0693 430.60017 2899.6393 C 431.08017 2900.5893 431.01017 2901.8193 432.42017 2902.0193 C 432.42017 2902.6193 432.42017 2903.2293 432.40017 2903.8293 C 429.58017 2904.1993 430.09017 2907.5593 428.08017 2908.6493 C 425.25017 2904.9393 424.48017 2900.2893 422.42017 2896.2293 Z" fill="#acd2d8"/>
      </g>
      <g id="Graphic_237">
        <path d="M 359.90017 2927.5793 C 359.50017 2930.6393 358.01017 2932.6693 354.98017 2932.8493 C 351.72017 2933.0393 350.22017 2930.7093 350.08017 2927.9293 C 349.95017 2925.1793 351.72017 2923.1693 354.56017 2923.0193 C 357.61017 2922.8493 359.27017 2924.7593 359.89017 2927.5793 Z" fill="#dbeaef"/>
      </g>
      <g id="Graphic_236">
        <path d="M 197.04017 2928.0693 C 197.35017 2925.0993 198.85017 2923.0093 201.95017 2923.0193 C 204.95017 2923.0193 206.91017 2924.9393 207.01017 2927.9493 C 207.11017 2930.8993 205.13017 2932.5393 202.34017 2932.7493 C 199.21017 2932.9793 197.58017 2931.0893 197.04017 2928.0793 Z" fill="#dbeaef"/>
      </g>
      <g id="Graphic_235">
        <path d="M 567.0502 3010.1493 C 567.0502 3026.1493 559.8002 3041.7293 545.3102 3056.9093 L 543.0502 3059.1693 L 416.31017 3192.6793 C 389.37017 3220.9793 366.44017 3242.8593 347.51017 3258.2993 C 328.57017 3273.7493 315.21017 3281.4693 307.42017 3281.4693 C 299.22017 3281.4693 289.03017 3277.6093 276.86017 3269.8793 C 264.69017 3262.1593 256.83017 3254.1893 253.28017 3245.9893 C 250.27017 3239.1593 247.44017 3224.6593 244.77017 3202.5093 C 242.10017 3180.3593 240.77017 3156.3693 240.77017 3130.5293 C 240.77017 3116.4493 246.65017 3103.4293 258.41017 3091.4593 C 270.17017 3079.4993 283.15017 3073.5193 297.37017 3073.5193 C 311.59017 3073.5193 318.97017 3085.8993 321.57017 3110.6393 C 321.84017 3113.5093 322.05017 3115.6293 322.19017 3116.9993 C 324.38017 3136.0093 326.91017 3149.2693 329.78017 3156.7893 C 332.65017 3164.3093 336.55017 3168.0693 341.47017 3168.0693 C 343.52017 3168.0693 347.35017 3165.8493 352.95017 3161.3993 C 358.55017 3156.9593 365.25017 3150.9093 373.05017 3143.2493 L 503.2702 3014.2593 C 514.2102 3003.3193 523.9802 2995.0493 532.6002 2989.4493 C 541.2102 2983.8493 548.5302 2981.0393 554.5402 2981.0393 C 559.0502 2981.0393 562.2602 2982.7493 564.1802 2986.1693 C 566.0902 2989.5893 567.0502 2995.3293 567.0502 3003.3993 L 567.0502 3010.1693 Z" fill="#50cb8b"/>
        <path d="M 567.0502 3010.1493 C 567.0502 3026.1493 559.8002 3041.7293 545.3102 3056.9093 L 543.0502 3059.1693 L 416.31017 3192.6793 C 389.37017 3220.9793 366.44017 3242.8593 347.51017 3258.2993 C 328.57017 3273.7493 315.21017 3281.4693 307.42017 3281.4693 C 299.22017 3281.4693 289.03017 3277.6093 276.86017 3269.8793 C 264.69017 3262.1593 256.83017 3254.1893 253.28017 3245.9893 C 250.27017 3239.1593 247.44017 3224.6593 244.77017 3202.5093 C 242.10017 3180.3593 240.77017 3156.3693 240.77017 3130.5293 C 240.77017 3116.4493 246.65017 3103.4293 258.41017 3091.4593 C 270.17017 3079.4993 283.15017 3073.5193 297.37017 3073.5193 C 311.59017 3073.5193 318.97017 3085.8993 321.57017 3110.6393 C 321.84017 3113.5093 322.05017 3115.6293 322.19017 3116.9993 C 324.38017 3136.0093 326.91017 3149.2693 329.78017 3156.7893 C 332.65017 3164.3093 336.55017 3168.0693 341.47017 3168.0693 C 343.52017 3168.0693 347.35017 3165.8493 352.95017 3161.3993 C 358.55017 3156.9593 365.25017 3150.9093 373.05017 3143.2493 L 503.2702 3014.2593 C 514.2102 3003.3193 523.9802 2995.0493 532.6002 2989.4493 C 541.2102 2983.8493 548.5302 2981.0393 554.5402 2981.0393 C 559.0502 2981.0393 562.2602 2982.7493 564.1802 2986.1693 C 566.0902 2989.5893 567.0502 2995.3293 567.0502 3003.3993 L 567.0502 3010.1693 Z" stroke="#008f00" stroke-linecap="butt" stroke-linejoin="round" stroke-width="14" clip-path="url(#inner_stroke_clip_path)"/>
      </g>
    </g>
  </g>
</svg>
